HIERARCHY
ROOT Hips
{
 OFFSET 0.000000 0.000000 0.000000
 CHANNELS 6 Xposition Yposition Zposition Yrotation Xrotation Zrotation
 JOINT Chest
 {
  OFFSET 0.000000 10.385163 0.011643
  CHANNELS 3 Yrotation Xrotation Zrotation
  JOINT Chest2
  {
   OFFSET 0.000000 11.579334 -0.021150
   CHANNELS 3 Yrotation Xrotation Zrotation
   JOINT Chest3
   {
    OFFSET 0.000000 10.463212 0.000000
    CHANNELS 3 Yrotation Xrotation Zrotation
    JOINT Chest4
    {
     OFFSET 0.000000 10.463212 0.000000
     CHANNELS 3 Yrotation Xrotation Zrotation
     JOINT Neck
     {
      OFFSET 0.000000 14.544862 0.000000
      CHANNELS 3 Yrotation Xrotation Zrotation
      JOINT Head
      {
       OFFSET 0.000000 9.730630 -0.050295
       CHANNELS 3 Yrotation Xrotation Zrotation
       End Site
       {
        OFFSET 0.000000 18.757589 -0.026270
       }
      }
     }
     JOINT RightCollar
     {
      OFFSET -2.985174 8.102313 0.000000
      CHANNELS 3 Yrotation Xrotation Zrotation
      JOINT RightShoulder
      {
       OFFSET -13.558590 0.000000 0.000000
       CHANNELS 3 Yrotation Xrotation Zrotation
       JOINT RightElbow
       {
        OFFSET -28.208579 0.000000 0.000000
        CHANNELS 3 Yrotation Xrotation Zrotation
        JOINT RightWrist
        {
         OFFSET -23.322907 0.000000 0.010349
         CHANNELS 3 Yrotation Xrotation Zrotation
         End Site
         {
          OFFSET -17.603338 0.000000 0.000000
         }
        }
       }
      }
     }
     JOINT LeftCollar
     {
      OFFSET 2.985174 8.102313 0.000000
      CHANNELS 3 Yrotation Xrotation Zrotation
      JOINT LeftShoulder
      {
       OFFSET 13.558590 0.000000 0.000000
       CHANNELS 3 Yrotation Xrotation Zrotation
       JOINT LeftElbow
       {
        OFFSET 28.208579 0.000000 0.000000
        CHANNELS 3 Yrotation Xrotation Zrotation
        JOINT LeftWrist
        {
         OFFSET 23.322907 0.000000 0.010349
         CHANNELS 3 Yrotation Xrotation Zrotation
         End Site
         {
          OFFSET 17.603338 0.000000 0.000000
         }
        }
       }
      }
     }
    }
   }
  }
 }
 JOINT RightHip
 {
  OFFSET -8.341224 -0.057053 -0.005822
  CHANNELS 3 Yrotation Xrotation Zrotation
  JOINT RightKnee
  {
   OFFSET 0.000000 -44.280013 0.005508
   CHANNELS 3 Yrotation Xrotation Zrotation
   JOINT RightAnkle
   {
    OFFSET 0.000000 -43.261728 0.009315
    CHANNELS 3 Yrotation Xrotation Zrotation
    JOINT RightToe
    {
     OFFSET 0.000000 -8.082955 18.257715
     CHANNELS 3 Yrotation Xrotation Zrotation
     End Site
     {
      OFFSET 0.000000 -1.634678 7.189621
     }
    }
   }
  }
 }
 JOINT LeftHip
 {
  OFFSET 8.341224 -0.057053 -0.005822
  CHANNELS 3 Yrotation Xrotation Zrotation
  JOINT LeftKnee
  {
   OFFSET 0.000000 -44.280013 0.005508
   CHANNELS 3 Yrotation Xrotation Zrotation
   JOINT LeftAnkle
   {
    OFFSET 0.000000 -43.261728 0.009315
    CHANNELS 3 Yrotation Xrotation Zrotation
    JOINT LeftToe
    {
     OFFSET 0.000000 -8.082955 18.257715
     CHANNELS 3 Yrotation Xrotation Zrotation
     End Site
     {
      OFFSET 0.000000 -1.634678 7.189621
     }
    }
   }
  }
 }
}
MOTION
Frames: 15
Frame Time: 0.016667
-113.989355 89.326716 -736.874993 -113.935852 -3.438865 -9.080299 -4.827410 12.379878 3.280876 -2.219744 5.467962 1.578813 -2.219156 5.467635 1.578668 -1.676866 4.094763 1.202873 8.882767 4.672230 -5.764373 21.276334 -25.646565 -16.657343 2.789494 -1.288555 8.661563 3.586339 -15.755213 60.638596 70.444610 -4.391758 34.271683 12.220502 -2.196253 3.204665 -0.853555 -5.791731 -11.642527 3.398709 -3.500520 -69.695135 -49.650291 -8.456559 -32.755778 -1.759518 -4.219464 -8.969350 -12.688918 -10.755084 2.947584 -0.695036 43.551459 -1.003824 -10.297398 -26.901121 4.320199 0.044370 0.821462 -0.254944 10.369451 -13.497785 0.342015 37.405739 75.551437 45.222710 2.801876 17.997451 7.639940 -2.009694 -13.480105 -4.051172
-117.491042 89.741533 -738.964354 -111.381916 -2.985616 -8.998650 -4.155351 11.773440 3.351110 -1.922203 5.202628 1.587208 -1.922203 5.202628 1.587208 -1.454216 3.897061 1.206004 8.117529 4.929434 -5.222140 19.374396 -25.495221 -15.097581 2.422066 -2.743927 8.555963 4.469859 -14.014241 60.439705 72.590372 -6.648869 34.033470 13.132687 -2.965348 2.247802 -0.229847 -6.730517 -11.836491 6.915865 -0.601580 -68.346262 -50.515977 -10.413061 -36.087438 -2.004651 -4.881173 -9.437638 -13.841178 -6.949780 2.664754 -1.716528 41.437273 -1.780927 -10.612302 -27.305236 5.402475 0.000000 0.000000 0.000000 10.894501 -17.175033 -1.732606 38.915808 75.456428 48.538186 0.950461 13.139586 7.184685 -1.945651 -19.509912 -5.159792
-121.184766 90.427184 -740.932354 -110.077554 -2.539727 -8.715675 -3.066448 11.089579 3.269933 -1.434362 4.907696 1.520111 -1.433953 4.908407 1.520279 -1.086722 3.678403 1.151163 7.337680 5.118468 -4.777486 17.523992 -25.414912 -13.745338 2.003169 -3.465992 8.244841 5.130491 -12.974749 60.114065 74.136549 -10.034167 35.067986 13.817876 -3.951027 1.564978 0.614660 -7.922458 -12.004685 10.168589 2.631141 -66.164137 -51.818207 -12.464513 -39.570610 -2.254301 -5.467901 -9.673500 -14.272103 -3.347137 2.309998 -1.653962 38.848865 -2.332844 -10.940538 -25.844967 7.061338 -0.109938 -2.385322 1.187832 11.687570 -19.970013 -4.061626 28.331649 75.869085 38.580074 2.072064 8.675425 6.442934 -0.791120 -22.746811 -3.631753
-125.017470 91.357278 -742.814104 -109.428442 -1.976244 -8.307931 -1.768810 10.257946 3.066184 -0.850542 4.548118 1.396663 -0.850168 4.548885 1.396885 -0.647410 3.410385 1.053601 6.534607 5.335270 -4.359310 15.636847 -25.255666 -12.426375 1.484091 -3.929789 7.823819 5.505341 -11.883216 59.769781 75.663831 -14.133053 36.792467 14.459612 -5.104807 0.981430 1.607025 -9.229551 -12.196122 13.568890 5.846464 -63.105669 -53.254216 -14.683531 -43.530769 -2.478711 -6.040090 -9.808703 -14.393089 0.141508 1.874164 -1.168598 35.671541 -2.929966 -10.867195 -22.832537 9.141399 -0.220066 -6.020918 2.727425 12.194533 -22.233456 -6.402062 9.994122 75.118287 19.882270 4.909580 4.219857 5.451782 0.118607 -24.288361 -0.408196
-128.928800 92.428023 -744.619893 -108.896533 -1.271169 -7.902479 -0.628408 9.390753 2.803757 -0.335240 4.169835 1.254557 -0.335240 4.169835 1.254557 -0.259894 3.126705 0.942793 5.823212 5.580631 -4.026804 13.976582 -24.990678 -11.327601 1.080131 -4.161838 7.512541 5.692617 -10.984161 59.490238 77.395120 -17.106010 38.386402 14.860366 -5.974825 0.575769 2.443037 -9.984113 -12.270080 17.065126 8.276318 -60.079409 -54.450315 -16.362515 -46.883542 -2.735236 -6.494132 -9.705849 -14.821429 3.124815 1.150414 -0.562437 32.591073 -3.208429 -9.911358 -18.140234 11.114433 -0.287487 -11.149756 3.300954 10.636775 -24.293739 -7.560667 -3.587632 71.634634 4.306450 7.739030 0.396599 4.200642 0.008573 -22.968348 2.077233
-132.917005 93.726821 -746.352241 -108.478372 -0.450796 -7.488033 0.281501 8.523555 2.461988 0.079111 3.789311 1.085782 0.078952 3.789041 1.085665 0.052359 2.841743 0.813372 5.244041 5.852380 -3.816968 12.647349 -24.618186 -10.545861 0.934420 -4.305409 7.509294 5.651058 -10.257661 59.229390 79.506272 -17.922220 39.678515 14.793199 -6.479718 0.409722 2.983228 -10.080644 -12.099935 20.885477 9.942922 -57.478255 -55.829460 -17.057055 -49.113067 -3.033560 -6.771493 -9.327747 -16.000703 5.464407 -0.161013 0.301949 29.592533 -2.848668 -7.385767 -10.782843 13.057154 -0.229376 -19.640504 1.841643 4.691944 -26.456163 -6.047016 -8.209436 65.702236 -5.274969 10.747579 -2.416277 2.135457 -0.436185 -16.447813 2.109384
-136.983835 95.166271 -748.008629 -108.174376 0.513702 -7.077100 1.035958 7.616730 2.070565 0.425112 3.389803 0.901163 0.425072 3.389862 0.901154 0.313716 2.543093 0.673284 4.761223 6.159324 -3.689087 11.555766 -24.141361 -9.976398 0.898578 -4.257238 7.651188 5.413783 -9.721519 58.971218 81.612856 -17.634554 41.102874 14.377414 -6.838695 0.489051 3.371335 -9.648128 -11.695290 24.732883 11.087035 -55.281725 -57.535915 -17.262855 -50.583757 -3.408965 -6.911591 -8.734990 -17.525522 7.261641 -1.812498 1.268483 26.670171 -2.120810 -3.868281 -1.813093 15.276312 0.260503 -29.595211 -0.756379 -3.674751 -28.150243 -2.810652 -6.503210 57.926251 -10.048508 14.146139 -4.532267 -0.143550 -0.395914 -6.946436 0.902193
-141.074193 96.380382 -749.591790 -107.456907 1.722056 -6.810573 1.484491 6.653151 1.773552 0.633157 2.962589 0.765557 0.633157 2.962589 0.765557 0.471049 2.222741 0.570969 4.376045 6.512686 -3.579757 10.668353 -23.557315 -9.494126 0.756601 -3.673898 7.629655 5.178295 -9.697872 58.819307 83.091237 -17.489160 42.767288 13.842902 -7.054706 0.820948 3.738931 -8.380198 -11.030498 27.668176 11.651352 -54.105965 -59.009230 -17.474159 -51.438410 -3.964181 -6.964560 -7.964748 -18.676939 8.545422 -3.127791 1.705923 24.529730 -1.432982 -0.925317 5.915295 17.295158 0.762310 -35.606222 -2.512943 -9.515325 -29.000734 -0.797356 -1.848269 49.464094 -9.832684 15.976619 -6.193712 -1.553031 0.000000 0.000000 0.000000
-145.184346 97.276835 -751.054843 -105.915337 3.363771 -6.664658 1.466525 5.540731 1.618408 0.631912 2.467264 0.700703 0.631982 2.466954 0.700600 0.471094 1.850707 0.522757 4.052921 6.971024 -3.450865 9.885619 -22.769549 -8.997116 0.406305 -2.248825 7.279271 4.960327 -10.448698 58.838058 83.545035 -18.030861 44.869602 13.136974 -7.029401 1.521437 4.212409 -5.968814 -9.923379 29.122081 11.945283 -54.571076 -59.978853 -17.846452 -51.507057 -4.853979 -6.905422 -6.860233 -19.160035 9.374926 -3.910659 1.218616 23.072792 -0.772601 0.701377 11.788574 18.555486 0.562872 -35.095422 -1.928373 -10.879970 -29.251739 -1.736220 3.738153 39.920879 -5.586186 14.558225 -7.302145 -2.077726 0.228521 1.696290 -0.099024
-149.318027 97.947949 -752.444671 -103.962573 5.250584 -6.603991 1.136083 4.358881 1.560164 0.490236 1.940858 0.682072 0.490404 1.940671 0.681996 0.365692 1.455910 0.509844 3.827689 7.470446 -3.335305 9.306543 -21.887355 -8.579119 -0.042850 -0.271720 6.789876 4.723040 -11.722234 58.938062 83.349577 -18.716952 47.239559 12.265767 -6.852314 2.456858 4.743075 -2.747051 -8.473538 29.571556 12.049670 -56.246071 -60.829649 -18.148307 -50.885825 -5.953470 -6.775956 -5.607446 -19.191736 9.741454 -4.326746 0.297411 22.425782 -0.085031 1.496349 16.553280 19.261404 0.211316 -30.644109 -0.344020 -9.585153 -28.910504 -4.290126 7.523025 29.197136 -1.325262 11.422749 -7.681167 -2.674292 0.141679 0.845753 -0.030171
-153.431329 98.304689 -753.904648 -102.320763 6.923080 -6.786223 0.808587 3.344237 1.609656 0.347609 1.489123 0.709259 0.347609 1.489123 0.709259 0.258964 1.117248 0.531068 3.805416 7.835023 -3.276878 9.181295 -21.223284 -8.400937 -0.478765 1.716937 6.375750 4.593691 -13.075542 58.993941 83.099284 -19.158018 49.328570 11.575628 -6.761005 3.249383 5.179605 0.657316 -7.120547 29.690900 11.532191 -58.198351 -61.859659 -18.202574 -50.130542 -6.900677 -6.725045 -4.729006 -18.775940 9.600988 -4.241970 -0.257611 23.612543 0.292406 1.576475 19.449376 19.682475 0.046618 -24.658586 0.743712 -6.129803 -27.929136 -7.119204 6.777313 19.579739 0.417723 9.154383 -7.625213 -3.452256 0.000000 -0.000000 0.000000
-157.450413 98.315946 -755.551853 -101.170575 8.515024 -7.430045 0.535909 2.494695 1.827342 0.228020 1.110806 0.809086 0.227853 1.110795 0.809104 0.169305 0.833401 0.606412 4.028481 7.956781 -3.301116 9.615256 -20.970300 -8.541448 -0.918541 4.079229 6.006494 4.710431 -15.000892 59.020298 83.113885 -19.198555 51.018347 11.338314 -6.881564 3.711947 5.387812 4.752307 -5.957353 29.685461 9.675000 -60.583561 -63.237956 -17.908733 -49.440206 -7.600130 -6.865259 -4.394012 -17.550357 8.697570 -3.141793 0.094441 27.270869 0.328003 0.487118 19.645975 19.863237 -0.099015 -16.537195 0.802797 1.311851 -25.850393 -10.188893 -0.546223 11.496279 -0.133067 8.745096 -7.317645 -4.422705 0.000000 -0.000000 -0.000000
-161.449118 98.012830 -757.269208 -100.360489 9.909150 -8.365084 0.261001 1.810645 2.178508 0.107302 0.805871 0.967111 0.107197 0.805843 0.967139 0.079055 0.604544 0.725224 4.450062 7.942493 -3.388138 10.490702 -20.934082 -8.921887 -1.352185 6.442939 5.678221 4.937689 -17.010232 59.006080 83.085583 -18.988609 52.420434 11.299802 -7.059792 4.045571 5.512547 9.081325 -4.972179 29.478855 7.123919 -63.249803 -64.791348 -17.331545 -48.608294 -8.106444 -7.074026 -4.390110 -15.936381 7.168128 -1.650339 0.979344 32.751241 0.377131 -1.518766 18.065487 19.781504 -0.121079 -6.895598 0.408159 10.666150 -22.888558 -13.134826 -10.665062 4.780864 -1.015431 9.067489 -6.730254 -5.050595 0.000000 -0.000000 -0.000000
-165.605061 97.399639 -758.848858 -100.095561 10.259374 -9.235789 0.142958 1.531606 2.531439 0.055175 0.681487 1.124508 0.055175 0.681487 1.124508 0.040127 0.511218 0.843310 5.042434 7.939851 -3.510904 11.717135 -20.843159 -9.454005 -1.608769 7.162389 5.655875 5.033285 -17.187191 58.788174 82.684018 -18.616257 53.306743 11.035350 -7.119386 4.475634 5.654338 11.590714 -4.512762 29.272300 5.420128 -64.806528 -66.269434 -16.523116 -47.604747 -8.261908 -7.133298 -4.650091 -15.052618 5.727608 -1.203968 1.768750 39.117815 0.372921 -3.169292 16.495420 19.583106 -0.000000 0.000000 0.000000 16.116775 -20.714979 -14.650709 -16.643510 1.527699 -1.246008 9.270318 -6.002826 -4.099214 0.000000 0.000000 0.000000
-170.057136 96.379815 -760.189272 -100.859439 9.096593 -9.974816 0.385917 1.697950 2.869551 0.161252 0.757163 1.273904 0.161331 0.757223 1.273850 0.119437 0.568284 0.955089 5.881329 8.108235 -3.658261 13.406862 -20.387845 -10.120307 -1.654990 5.096539 6.162229 4.978548 -14.050623 58.139587 81.728854 -18.287084 53.562553 10.188894 -6.927931 5.182731 5.942197 11.215657 -4.779817 29.141949 5.496502 -64.429401 -67.866669 -15.206713 -46.490630 -7.792726 -6.863963 -5.432025 -15.389308 4.699082 -2.536405 2.489610 46.422383 -0.036027 -3.953562 15.501083 19.372022 0.078605 1.821472 -0.177851 14.632674 -20.744115 -14.349392 -14.389913 3.260029 -0.668502 9.031184 -4.677226 -0.333261 0.000000 0.000000 0.000000
